<?xml version="1.0" standalone="no"?><!DOCTYPE svg PUBLIC "-//W3C//DTD SVG 1.1//EN" "http://www.w3.org/Graphics/SVG/1.1/DTD/svg11.dtd"><svg t="1777474926894" class="icon" viewBox="0 0 1024 1024" version="1.1" xmlns="http://www.w3.org/2000/svg" p-id="11893" xmlns:xlink="http://www.w3.org/1999/xlink" width="200" height="200"><path d="M170.666667 0h682.666666a170.666667 170.666667 0 0 1 170.666667 170.666667v682.666666a170.666667 170.666667 0 0 1-170.666667 170.666667H170.666667a170.666667 170.666667 0 0 1-170.666667-170.666667V170.666667A170.666667 170.666667 0 0 1 162.133333 0.213333L170.666667 0z" fill="#3F70FF" p-id="11894"></path><path d="M830.208 226.346667l-32.554667-32.597334a6.357333 6.357333 0 0 0-8.746666 0l-58.453334 58.496a153.045333 153.045333 0 0 0-86.186666-26.368 153.173333 153.173333 0 0 0-108.672 45.056l-78.293334 78.293334a6.186667 6.186667 0 0 0 0 8.704l208.725334 208.768a6.016 6.016 0 0 0 4.394666 1.792 6.485333 6.485333 0 0 0 4.394667-1.792l78.250667-78.293334a153.898667 153.898667 0 0 0 18.688-194.816l58.453333-58.453333a6.272 6.272 0 0 0 0-8.789333z m-255.445333 304.768a6.485333 6.485333 0 0 0-9.130667 0l-53.674667 53.717333L439.168 512l53.76-53.76a6.485333 6.485333 0 0 0 0-9.130667l-29.354667-29.354666a6.485333 6.485333 0 0 0-9.088 0l-53.76 53.76-34.688-34.645334a6.314667 6.314667 0 0 0-4.565333-1.834666 6.826667 6.826667 0 0 0-4.608 1.834666L274.773333 521.045333a161.493333 161.493333 0 0 0-19.626666 204.416l-61.312 61.397334a6.485333 6.485333 0 0 0 0 9.088l34.176 34.218666a6.656 6.656 0 0 0 9.173333 0l61.354667-61.397333a160.554667 160.554667 0 0 0 90.368 27.648c41.258667 0 82.517333-15.701333 114.048-47.232l82.133333-82.176a6.485333 6.485333 0 0 0 0-9.130667l-34.645333-34.645333 53.76-53.802667a6.485333 6.485333 0 0 0 0-9.130666l-29.482667-29.184z" fill="#FFFFFF" p-id="11895"></path></svg>